<svg width="31" height="36" viewBox="0 0 31 36" fill="none" xmlns="http://www.w3.org/2000/svg">
<path d="M11.3757 8.03146H16.2802V13.8772H11.3757V24.0825C11.3757 25.1394 11.6068 25.8825 12.0692 26.3118C12.5646 26.7082 13.2912 26.9063 14.249 26.9063C14.6453 26.9063 15.0416 26.8898 15.438 26.8568C15.8343 26.8238 16.115 26.7742 16.2802 26.7082V32.1576C15.9829 32.2897 15.5205 32.4218 14.893 32.5539C14.2985 32.686 13.5224 32.7521 12.5646 32.7521C10.1867 32.7521 8.30416 32.0915 6.91703 30.7705C5.5299 29.4494 4.83634 27.5999 4.83634 25.222V13.8772H0.427246V8.03146H1.66575C2.9538 8.03146 3.89507 7.66816 4.48955 6.94157C5.11706 6.18195 5.43082 5.2572 5.43082 4.16731V0.749023H11.3757V8.03146Z" fill="url(#paint0_linear_3_3670)"/>
<path d="M15.3757 8.03146H20.2802V13.8772H15.3757V24.0825C15.3757 25.1394 15.6068 25.8825 16.0692 26.3118C16.5646 26.7082 17.2912 26.9063 18.249 26.9063C18.6453 26.9063 19.0416 26.8898 19.438 26.8568C19.8343 26.8238 20.115 26.7742 20.2802 26.7082V32.1576C19.9829 32.2897 19.5205 32.4218 18.893 32.5539C18.2985 32.686 17.5224 32.7521 16.5646 32.7521C14.1867 32.7521 12.3042 32.0915 10.917 30.7705C9.5299 29.4494 8.83634 27.5999 8.83634 25.222V13.8772H4.42725V8.03146H5.66575C6.9538 8.03146 7.89507 7.66816 8.48955 6.94157C9.11706 6.18195 9.43082 5.2572 9.43082 4.16731V0.749023H15.3757V8.03146Z" fill="#F0ECE0"/>
<circle cx="24" cy="29" r="5.5" fill="#FFB36C" stroke="#1D1A2B" stroke-width="3"/>
<defs>
<linearGradient id="paint0_linear_3_3670" x1="0.131483" y1="0.74902" x2="17.4225" y2="1.37859" gradientUnits="userSpaceOnUse">
<stop stop-color="#F9A648"/>
<stop offset="0.272731" stop-color="#FD6172"/>
<stop offset="0.592182" stop-color="#853BC4"/>
<stop offset="1" stop-color="#203DF3"/>
</linearGradient>
</defs>
</svg>
