<svg width="315" height="109" viewBox="0 0 315 109" fill="none" xmlns="http://www.w3.org/2000/svg">
<path d="M283.187 48.0824C281.796 47.8042 280.405 47.665 279.013 47.665C277.205 47.665 275.5 47.9085 273.9 48.3955C272.3 48.8824 270.909 49.6824 269.726 50.7955C268.544 51.9085 267.57 53.4042 266.805 55.2824C266.109 57.0911 265.761 59.3868 265.761 62.1694V85.6476H251.883V34.3085H265.344V41.9259C266.109 40.2563 267.083 38.8998 268.265 37.8563C269.518 36.7433 270.805 35.9085 272.126 35.352C273.518 34.7955 274.874 34.4129 276.196 34.2042C277.587 33.9955 278.839 33.8911 279.952 33.8911C280.509 33.8911 281.031 33.9259 281.518 33.9955C282.074 33.9955 282.631 34.0302 283.187 34.0998V48.0824Z" fill="#F0ECE0"/>
<path d="M191.959 85.6477V10.0999H205.629V39.9433C206.811 38.1346 208.724 36.5346 211.368 35.1433C214.081 33.6825 217.35 32.952 221.176 32.952C224.933 32.952 228.272 33.6477 231.194 35.039C234.116 36.3607 236.585 38.239 238.602 40.6738C240.689 43.039 242.255 45.8564 243.298 49.1259C244.342 52.3955 244.863 55.9433 244.863 59.7694C244.863 63.6651 244.272 67.2825 243.089 70.6216C241.976 73.8912 240.342 76.7433 238.185 79.1781C236.098 81.6129 233.559 83.5259 230.568 84.9173C227.576 86.239 224.272 86.8999 220.655 86.8999C217.107 86.8999 214.011 86.2042 211.368 84.8129C208.794 83.4216 206.811 81.6129 205.42 79.3868V85.6477H191.959ZM230.985 59.8738C230.985 55.1433 229.733 51.5607 227.229 49.1259C224.794 46.6216 221.802 45.3694 218.255 45.3694C216.516 45.3694 214.846 45.6825 213.246 46.3086C211.716 46.9346 210.359 47.8738 209.176 49.1259C208.063 50.3085 207.159 51.8042 206.463 53.6129C205.768 55.4216 205.42 57.5085 205.42 59.8738C205.42 62.1694 205.768 64.2216 206.463 66.0303C207.159 67.839 208.063 69.3694 209.176 70.6216C210.359 71.8738 211.716 72.8477 213.246 73.5433C214.846 74.1694 216.516 74.4825 218.255 74.4825C221.802 74.4825 224.794 73.2303 227.229 70.7259C229.733 68.2216 230.985 64.6042 230.985 59.8738Z" fill="#F0ECE0"/>
<path d="M104.115 85.6489V34.3098H117.367V40.5706C118.063 39.3184 118.967 38.2054 120.08 37.2315C121.193 36.2576 122.411 35.4576 123.733 34.8315C125.124 34.2054 126.55 33.7184 128.011 33.3706C129.541 33.0228 131.002 32.8489 132.393 32.8489C135.941 32.8489 139.037 33.5793 141.68 35.0402C144.324 36.5011 146.307 38.6228 147.628 41.4054C149.646 38.275 152.011 36.0837 154.724 34.8315C157.437 33.5097 160.498 32.8489 163.907 32.8489C166.272 32.8489 168.567 33.2315 170.793 33.9967C173.02 34.6924 175.002 35.8402 176.741 37.4402C178.48 39.0402 179.872 41.0924 180.915 43.5967C181.959 46.0315 182.48 48.9532 182.48 52.3619V85.6489H169.02V55.1793C169.02 52.3967 168.289 50.1011 166.828 48.2924C165.437 46.4141 163.141 45.475 159.941 45.475C156.95 45.475 154.62 46.4837 152.95 48.5011C151.28 50.4489 150.446 52.8141 150.446 55.5967V85.6489H136.672V55.1793C136.672 52.3967 135.941 50.1011 134.48 48.2924C133.02 46.4141 130.724 45.475 127.593 45.475C124.533 45.475 122.167 46.4489 120.498 48.3967C118.828 50.3445 117.993 52.7445 117.993 55.5967V85.6489H104.115Z" fill="#F0ECE0"/>
<path d="M80.2617 85.6477V34.3086H94.14V85.6477H80.2617Z" fill="#F0ECE0"/>
<path d="M81.5122 13.5769C79.8426 15.2464 79.0078 17.2986 79.0078 19.7334C79.0078 22.029 79.8426 24.0116 81.5122 25.6812C83.1817 27.3508 85.1991 28.1856 87.5643 28.1856C89.9991 28.1856 92.0165 27.3508 93.6165 25.6812C95.2861 24.0116 96.1209 22.029 96.1209 19.7334C96.1209 17.2986 95.2861 15.2464 93.6165 13.5769C92.0165 11.9073 89.9991 11.0725 87.5643 11.0725C85.1991 11.0725 83.1817 11.9073 81.5122 13.5769Z" fill="#FAA34B"/>
<path d="M54.5257 34.3072H64.8561V46.6202H54.5257V68.1158C54.5257 70.3419 55.0127 71.9072 55.9866 72.8115C57.0301 73.6463 58.5605 74.0637 60.5779 74.0637C61.4127 74.0637 62.2475 74.0289 63.0822 73.9593C63.917 73.8898 64.5083 73.7854 64.8561 73.6463V85.1245C64.2301 85.4028 63.2561 85.6811 61.9344 85.9593C60.6822 86.2376 59.0475 86.3767 57.0301 86.3767C52.0214 86.3767 48.0561 84.9854 45.1344 82.2028C42.2127 79.4202 40.7518 75.5245 40.7518 70.5159V46.6202H31.4648V34.3072H34.0735C36.7866 34.3072 38.7692 33.5419 40.0214 32.0115C41.3431 30.4115 42.004 28.4637 42.004 26.168V18.968H54.5257V34.3072Z" fill="url(#paint0_linear_167_268)"/>
<path d="M62.9515 34.3072H73.2819V46.6202H62.9515V68.1158C62.9515 70.3419 63.4385 71.9072 64.4124 72.8115C65.4558 73.6463 66.9863 74.0637 69.0037 74.0637C69.8385 74.0637 70.6732 74.0289 71.508 73.9593C72.3428 73.8898 72.9341 73.7854 73.2819 73.6463V85.1245C72.6558 85.4028 71.6819 85.6811 70.3602 85.9593C69.108 86.2376 67.4732 86.3767 65.4558 86.3767C60.4471 86.3767 56.4819 84.9854 53.5602 82.2028C50.6385 79.4202 49.1776 75.5245 49.1776 70.5159V46.6202H39.8906V34.3072H42.4993C45.2124 34.3072 47.195 33.5419 48.4471 32.0115C49.7689 30.4115 50.4298 28.4637 50.4298 26.168V18.968H62.9515V34.3072Z" fill="#F0ECE0"/>
<defs>
<linearGradient id="paint0_linear_167_268" x1="30.8419" y1="18.968" x2="67.2622" y2="20.2941" gradientUnits="userSpaceOnUse">
<stop stop-color="#F9A648"/>
<stop offset="0.272731" stop-color="#FD6172"/>
<stop offset="0.592182" stop-color="#853BC4"/>
<stop offset="1" stop-color="#203DF3"/>
</linearGradient>
</defs>
</svg>
